# xmcd CD database file
#
# Track frame offsets:
#	150
#	19198
#	48921
#	64294
#	85764
#	98984
#	119114
#	134930
#	160948
#	185148
#
# Disc length: 2768 seconds
#
# Revision: 0
# Processed by: cddbd v1.5.2PL0 Copyright (c) Steve Scherf et al.
# Submitted via: CDex 1.51
#
DISCID=960ace0a
DTITLE=Duo Renaud Détruit and Florent Sepchat - Fines Lames
DYEAR=2016
DGENRE=Jazz
TTITLE0=Vasco
TTITLE1=Reflets d'influences 1
TTITLE2=Avec un peu de ça
TTITLE3=Pouki Pouki
TTITLE4=Mikrokosmos n°116
TTITLE5=Mikrokosmos n°153
TTITLE6=Very early
TTITLE7=Sang mêlé
TTITLE8=Reflets d'influences 2
TTITLE9=Nuit rouge
EXTD=YEAR: 2016
EXTT0=
EXTT1=
EXTT2=
EXTT3=
EXTT4=
EXTT5=
EXTT6=
EXTT7=
EXTT8=
EXTT9=
PLAYORDER=
